<?xml version="1.0" encoding="utf-8"?>
<!-- Generator: Adobe Illustrator 16.0.3, SVG Export Plug-In . SVG Version: 6.00 Build 0)  -->
<!DOCTYPE svg PUBLIC "-//W3C//DTD SVG 1.1//EN" "http://www.w3.org/Graphics/SVG/1.1/DTD/svg11.dtd">
<svg version="1.1" id="Calque_1" xmlns="http://www.w3.org/2000/svg" xmlns:xlink="http://www.w3.org/1999/xlink" x="0px" y="0px"
	 width="2481px" height="2073px" viewBox="0 0 2481 2073" enable-background="new 0 0 2481 2073" xml:space="preserve">
<title>map marker</title>
<g>
	<title>Layer 1</title>
	<path id="svg_2" fill="#45FF00" stroke="#000000" stroke-width="37" stroke-miterlimit="10" d="M1075.94,1959.63
		c-38.766-190.302-107.116-348.665-189.903-495.44c-61.406-108.872-132.544-209.363-198.363-314.938
		c-21.973-35.244-40.935-72.478-62.048-109.055c-42.216-73.137-76.443-157.935-74.269-267.932
		c2.125-107.473,33.208-193.684,78.03-264.172c73.719-115.936,197.201-210.989,362.884-235.97
		c135.466-20.424,262.476,14.082,352.543,66.748c73.601,43.038,130.596,100.527,173.92,168.28
		c45.22,70.716,76.359,154.26,78.971,263.232c1.337,55.83-7.805,107.531-20.684,150.418
		c-13.034,43.409-33.996,79.694-52.646,118.454c-36.406,75.659-82.05,144.981-127.855,214.346
		C1260.082,1460.209,1132.024,1670.912,1075.94,1959.63z"/>
	<circle id="svg_4" cx="1080.546" cy="740.048" r="183.332"/>
</g>
</svg>
